{
  "accessors": [
    {
      "bufferView": 2,
      "componentType": 5126,
      "count": 906,
      "max": [
        4.9079999923706055,
        4.9079999923706055,
        0.02590000070631504
      ],
      "min": [
        -4.9079999923706055,
        -4.9079999923706055,
        -0.02590000070631504
      ],
      "type": "VEC3"
    },
    {
      "bufferView": 2,
      "byteOffset": 10872,
      "componentType": 5126,
      "count": 906,
      "max": [
        1.0,
        1.0,
        1.0
      ],
      "min": [
        -1.0,
        -1.0,
        -1.0
      ],
      "type": "VEC3"
    },
    {
      "bufferView": 3,
      "componentType": 5126,
      "count": 906,
      "max": [
        1.0,
        1.0,
        0.29098817706108093,
        1.0
      ],
      "min": [
        -1.0,
        -1.0,
        -0.2909882962703705,
        1.0
      ],
      "type": "VEC4"
    },
    {
      "bufferView": 1,
      "componentType": 5126,
      "count": 906,
      "max": [
        0.991360604763031,
        0.9967250227928162
      ],
      "min": [
        0.004558092914521694,
        0.005442801862955093
      ],
      "type": "VEC2"
    },
    {
      "bufferView": 1,
      "byteOffset": 7248,
      "componentType": 5126,
      "count": 906,
      "max": [
        0.991360604763031,
        0.9967250227928162
      ],
      "min": [
        0.004558092914521694,
        0.005442801862955093
      ],
      "type": "VEC2"
    },
    {
      "bufferView": 1,
      "byteOffset": 14496,
      "componentType": 5126,
      "count": 906,
      "max": [
        0.991360604763031,
        0.9967250227928162
      ],
      "min": [
        0.004558092914521694,
        0.005442801862955093
      ],
      "type": "VEC2"
    },
    {
      "bufferView": 0,
      "componentType": 5125,
      "count": 3840,
      "type": "SCALAR"
    },
    {
      "bufferView": 2,
      "byteOffset": 21744,
      "componentType": 5126,
      "count": 188,
      "max": [
        5.138026237487793,
        0.05711084231734276,
        5.035092353820801
      ],
      "min": [
        -5.089566230773926,
        -0.05711083114147186,
        -5.028253555297852
      ],
      "type": "VEC3"
    },
    {
      "bufferView": 2,
      "byteOffset": 24000,
      "componentType": 5126,
      "count": 188,
      "max": [
        1.0,
        1.0,
        1.0
      ],
      "min": [
        -1.0,
        -1.0,
        -1.0
      ],
      "type": "VEC3"
    },
    {
      "bufferView": 3,
      "byteOffset": 14496,
      "componentType": 5126,
      "count": 188,
      "max": [
        1.0,
        1.0,
        0.0010953572345897555,
        1.0
      ],
      "min": [
        -1.0,
        -1.0,
        -1.0,
        1.0
      ],
      "type": "VEC4"
    },
    {
      "bufferView": 1,
      "byteOffset": 21744,
      "componentType": 5126,
      "count": 188,
      "max": [
        0.9963306188583374,
        0.9955751895904541
      ],
      "min": [
        0.0026616225950419903,
        0.005196785554289818
      ],
      "type": "VEC2"
    },
    {
      "bufferView": 1,
      "byteOffset": 23248,
      "componentType": 5126,
      "count": 188,
      "max": [
        0.9963306188583374,
        0.9955751895904541
      ],
      "min": [
        0.0026616225950419903,
        0.005196785554289818
      ],
      "type": "VEC2"
    },
    {
      "bufferView": 1,
      "byteOffset": 24752,
      "componentType": 5126,
      "count": 188,
      "max": [
        0.9963306188583374,
        0.9955751895904541
      ],
      "min": [
        0.0026616225950419903,
        0.005196785554289818
      ],
      "type": "VEC2"
    },
    {
      "bufferView": 0,
      "byteOffset": 15360,
      "componentType": 5125,
      "count": 420,
      "type": "SCALAR"
    }
  ],
  "asset": {
    "extras": {
      "author": "plaggy (https://sketchfab.com/plaggy)",
      "license": "CC-BY-4.0 (http://creativecommons.org/licenses/by/4.0/)",
      "source": "https://sketchfab.com/3d-models/cc0-10-inch-vinyl-record-sgt-holmes-b0d0d7511e91453a8b3bd7f142abfa6e",
      "title": "CC0 - 10 inch Vinyl Record Sgt Holmes"
    },
    "generator": "Sketchfab-15.62.0",
    "version": "2.0"
  },
  "bufferViews": [
    {
      "buffer": 0,
      "byteLength": 17040,
      "name": "floatBufferViews",
      "target": 34963
    },
    {
      "buffer": 0,
      "byteLength": 26256,
      "byteOffset": 17040,
      "byteStride": 8,
      "name": "floatBufferViews",
      "target": 34962
    },
    {
      "buffer": 0,
      "byteLength": 26256,
      "byteOffset": 43296,
      "byteStride": 12,
      "name": "floatBufferViews",
      "target": 34962
    },
    {
      "buffer": 0,
      "byteLength": 17504,
      "byteOffset": 69552,
      "byteStride": 16,
      "name": "floatBufferViews",
      "target": 34962
    }
  ],
  "buffers": [
    {
      "byteLength": 87056,
      "uri": "scene.bin"
    }
  ],
  "images": [
    {
      "uri": "textures/VinylRecordSgtHolmes_baseColor.png"
    },
    {
      "uri": "textures/VinylRecordSgtHolmes_metallicRoughness.png"
    },
    {
      "uri": "textures/VinylRecordSgtHolmes_normal.png"
    },
    {
      "uri": "textures/VinylRecordSgtHolmesSleeve_baseColor.png"
    },
    {
      "uri": "textures/VinylRecordSgtHolmesSleeve_metallicRoughness.png"
    },
    {
      "uri": "textures/VinylRecordSgtHolmesSleeve_normal.png"
    }
  ],
  "materials": [
    {
      "name": "VinylRecordSgtHolmes",
      "normalTexture": {
        "index": 2
      },
      "occlusionTexture": {
        "index": 1
      },
      "pbrMetallicRoughness": {
        "baseColorTexture": {
          "index": 0
        },
        "metallicRoughnessTexture": {
          "index": 1
        }
      }
    },
    {
      "name": "VinylRecordSgtHolmesSleeve",
      "normalTexture": {
        "index": 5
      },
      "occlusionTexture": {
        "index": 4
      },
      "pbrMetallicRoughness": {
        "baseColorTexture": {
          "index": 3
        },
        "metallicRoughnessTexture": {
          "index": 4
        }
      }
    }
  ],
  "meshes": [
    {
      "name": "VinylRecordSgtHolmes_VinylRecordSgtHolmes_0",
      "primitives": [
        {
          "attributes": {
            "NORMAL": 1,
            "POSITION": 0,
            "TANGENT": 2,
            "TEXCOORD_0": 3,
            "TEXCOORD_1": 4,
            "TEXCOORD_2": 5
          },
          "indices": 6,
          "material": 0,
          "mode": 4
        }
      ]
    },
    {
      "name": "VinylRecordSgtHolmesSleeve_VinylRecordSgtHolmesSleeve_0",
      "primitives": [
        {
          "attributes": {
            "NORMAL": 8,
            "POSITION": 7,
            "TANGENT": 9,
            "TEXCOORD_0": 10,
            "TEXCOORD_1": 11,
            "TEXCOORD_2": 12
          },
          "indices": 13,
          "material": 1,
          "mode": 4
        }
      ]
    }
  ],
  "nodes": [
    {
      "children": [
        1
      ],
      "matrix": [
        1.0,
        0.0,
        0.0,
        0.0,
        0.0,
        2.220446049250313e-16,
        -1.0,
        0.0,
        0.0,
        1.0,
        2.220446049250313e-16,
        0.0,
        0.0,
        0.0,
        0.0,
        1.0
      ],
      "name": "Sketchfab_model"
    },
    {
      "children": [
        2
      ],
      "matrix": [
        0.02539999969303608,
        0.0,
        0.0,
        0.0,
        0.0,
        0.0,
        0.02539999969303608,
        0.0,
        0.0,
        -0.02539999969303608,
        0.0,
        0.0,
        0.0,
        0.0,
        0.0,
        1.0
      ],
      "name": "60e47e71845a4c4cab7ad096cfdf123e.fbx"
    },
    {
      "children": [
        3,
        5
      ],
      "name": "RootNode"
    },
    {
      "children": [
        4
      ],
      "matrix": [
        0.9773113540342144,
        -0.07930429872935885,
        0.19640098135919512,
        0.0,
        0.13024071307580892,
        0.9562473397234201,
        -0.26197019282618167,
        0.0,
        -0.16703255351372412,
        0.28160584772857006,
        0.9448800307931998,
        0.0,
        3.1903343200683594,
        -0.25888028740882874,
        0.6411319971084595,
        1.0
      ],
      "name": "VinylRecordSgtHolmes"
    },
    {
      "mesh": 0,
      "name": "VinylRecordSgtHolmes_VinylRecordSgtHolmes_0"
    },
    {
      "children": [
        6
      ],
      "matrix": [
        0.9773113540342144,
        -0.07930429872935885,
        0.1964009813591951,
        0.0,
        0.16703250244333212,
        -0.2816062226951237,
        -0.9448799280685893,
        0.0,
        0.13024077857310484,
        0.9562472292992168,
        -0.2619705633353535,
        0.0,
        -3.1903347969055176,
        0.25888028740882874,
        -0.6411319971084595,
        1.0
      ],
      "name": "VinylRecordSgtHolmesSleeve"
    },
    {
      "children": [
        7
      ],
      "matrix": [
        1.0,
        0.0,
        -0.0,
        0.0,
        0.0,
        1.0,
        0.0,
        0.0,
        0.0,
        0.0,
        1.0,
        0.0,
        -0.024230003356933594,
        -5.587935447692871e-09,
        -0.0034193992614746094,
        1.0
      ],
      "name": "Object_6"
    },
    {
      "mesh": 1,
      "name": "VinylRecordSgtHolmesSleeve_VinylRecordSgtHolmesSleeve_0"
    }
  ],
  "samplers": [
    {
      "magFilter": 9729,
      "minFilter": 9987,
      "wrapS": 10497,
      "wrapT": 10497
    }
  ],
  "scene": 0,
  "scenes": [
    {
      "name": "Sketchfab_Scene",
      "nodes": [
        0
      ]
    }
  ],
  "textures": [
    {
      "sampler": 0,
      "source": 0
    },
    {
      "sampler": 0,
      "source": 1
    },
    {
      "sampler": 0,
      "source": 2
    },
    {
      "sampler": 0,
      "source": 3
    },
    {
      "sampler": 0,
      "source": 4
    },
    {
      "sampler": 0,
      "source": 5
    }
  ]
}
